<?xml version="1.0" encoding="UTF-8"?>
<svg id="_레이어_1" data-name="레이어 1" xmlns="http://www.w3.org/2000/svg" viewBox="0 0 2560.19 632.48">
  <defs>
    <style>
      .cls-1 {
        fill: #4880ee;
      }
    </style>
  </defs>
  <path class="cls-1" d="M561.19,0h125c.33,74.91.66,149.82,1,227l8-8c3.55-3.16,7.25-6.08,11-9,.99-.78,1.99-1.56,3.01-2.37,31.05-23.72,69.86-34.12,108.49-33.94.83,0,1.67,0,2.53,0,13.51.06,26.69.67,39.97,3.31q1.5.3,3.04.6c14.89,3.06,29,7.41,42.96,13.4.81.34,1.61.69,2.44,1.04,29.15,12.64,56.14,32.69,75.56,57.96.65.78,1.3,1.57,1.97,2.38,26.54,32.02,41.41,72.76,47.03,113.62.12.83.23,1.67.35,2.53,8.01,59.87-5.27,123.37-42.1,171.84-13.95,18.11-30.38,34.68-49.25,47.63-.63.43-1.27.87-1.92,1.32-31.29,21.12-66.86,34.07-104.08,39.68-.74.11-1.47.22-2.23.34-62.51,9.22-133.84-1.23-185.71-39.16-7.78-5.9-14.99-12.44-22.05-19.18l-2.73-2.54c-37.83-36.19-55.31-88.65-61.27-139.46-.09-.75-.18-1.5-.27-2.28-.91-8.63-.87-17.25-.85-25.92,0-1.73,0-3.47,0-5.2,0-4.74,0-9.48,0-14.22,0-5.12,0-10.24,0-15.36,0-8.87,0-17.73,0-26.6,0-12.82.01-25.64.01-38.45,0-20.8,0-41.59.02-62.39,0-20.2.02-40.4.02-60.6,0-1.25,0-2.49,0-3.77,0-6.25,0-12.5,0-18.75.01-51.82.03-103.64.05-155.46ZM705.7,329.87c-11.7,14.15-19.28,31.38-23.51,49.13-.23.89-.45,1.78-.68,2.7-6.23,29.48,1.62,60.38,17.68,85.3,2.48,3.53,5.14,6.77,8,10,.82.96,1.64,1.93,2.49,2.92,20.07,23.15,49.14,36.57,79.51,39.08,33.1,1.71,63.23-9.38,88.44-30.62,3.86-3.52,7.27-7.33,10.56-11.38q1.03-1.24,2.09-2.51c19.18-24.16,27.16-53.65,24.6-84.22-3.93-31.02-19.27-58.67-43.69-78.27-52.14-39.6-122.46-30.63-165.49,17.87Z"/>
  <path class="cls-1" d="M1467.19,217c.95.67,1.9,1.35,2.88,2.04,16.14,11.78,30.77,25.23,43.12,40.96q1.22,1.51,2.47,3.06c6.3,7.89,11.57,16.16,16.53,24.94.34.6.69,1.19,1.04,1.8,11.7,20.4,18.97,42.74,23.71,65.7.2.95.4,1.89.6,2.87,3.43,17.53,3.94,35.12,3.87,52.92,0,2.26,0,4.52,0,6.78,0,6.07-.01,12.13-.03,18.2-.01,6.36-.01,12.73-.02,19.09,0,10.66-.02,21.32-.04,31.98-.02,10.97-.03,21.94-.04,32.91,0,.69,0,1.37,0,2.08,0,5.97,0,11.93-.01,17.9-.02,25.59-.06,51.18-.1,76.76h-112c-.33-18.81-.66-37.62-1-57-3.63,4.62-7.26,9.24-11,14-8.1,8.62-16.54,15.96-26,23q-1.26.95-2.55,1.93c-41.62,30.38-92.71,37.69-142.71,30.18-50.81-8.43-97.71-34.49-129.74-75.11-.82-1.01-1.63-2.02-2.47-3.06-6.3-7.89-11.56-16.16-16.53-24.94q-.55-.94-1.1-1.9c-31.34-54.21-37.04-124.26-21.49-184.26,14.76-54.9,50.14-103.22,99.59-131.84,14.18-8.03,28.56-14.78,44-20,.8-.28,1.61-.55,2.44-.83,72.89-24.54,163.41-15.34,226.56,29.83ZM1241.4,324.45c-23.45,27.07-31.83,57.06-30.21,92.55,1.69,22.1,12.49,44.49,27,61q.98,1.19,1.97,2.41c18.8,22.21,46.33,35.39,75.03,38.59,33.69,1.72,63.72-6.91,89.25-29.56,1.59-1.47,3.17-2.95,4.75-4.44.6-.54,1.21-1.08,1.83-1.63,16.88-15.7,28.09-40.73,31.17-63.37.11-.78.22-1.56.33-2.36,3.6-30.1-4.66-60.73-23.33-84.64-3.47-4.19-7.2-8.11-11-12-.59-.65-1.18-1.31-1.79-1.98-12.74-13.75-32.35-23.22-50.21-28.02q-1.77-.48-3.58-.96c-40.33-9.16-82.86,4.75-111.21,34.42Z"/>
  <path class="cls-1" d="M2139.19,0h125c.33,121.44.66,242.88,1,368q6.93-7.64,13.5-15.5c3.61-4.46,7.39-8.73,11.25-12.97,2.31-2.6,4.5-5.26,6.68-7.96,3.86-4.77,7.94-9.3,12.09-13.81,2.41-2.69,4.7-5.44,6.97-8.25,3.84-4.76,7.89-9.26,12.03-13.75,2.41-2.69,4.7-5.44,6.97-8.25,3.84-4.76,7.89-9.26,12.03-13.75,2.41-2.69,4.7-5.44,6.97-8.25,3.84-4.76,7.89-9.26,12.03-13.75,2.41-2.69,4.7-5.44,6.97-8.25,3.05-3.78,6.21-7.42,9.5-11,4.11-4.47,7.97-9.09,11.79-13.82,2.17-2.63,4.42-5.16,6.71-7.68,3.88-4.26,7.55-8.67,11.16-13.16.77-.94,1.54-1.87,2.34-2.84.42-.66.85-1.32,1.28-2,2.47-3.46,4.36-5.66,8.57-6.73,3.59-.26,7.1-.26,10.7-.18,1.37,0,2.74,0,4.11,0,3.7,0,7.41.04,11.11.1,3.88.05,7.75.05,11.63.06,7.33.02,14.67.09,22,.17,8.35.09,16.71.13,25.06.17,17.18.08,34.35.22,51.53.4-1.69,4.64-4.16,7.63-7.56,11.12-4.67,4.92-9.04,9.97-13.29,15.26-2.14,2.61-4.37,5.12-6.64,7.61-3.1,3.4-6.05,6.86-8.94,10.44-3.86,4.77-7.94,9.3-12.09,13.81-2.41,2.69-4.7,5.44-6.97,8.25-3.84,4.76-7.89,9.26-12.03,13.75-2.41,2.69-4.7,5.44-6.97,8.25-3.84,4.76-7.89,9.26-12.03,13.75-2.41,2.69-4.7,5.44-6.97,8.25-3.84,4.76-7.89,9.26-12.03,13.75-2.41,2.69-4.7,5.44-6.97,8.25-3.05,3.78-6.21,7.42-9.5,11-4.11,4.47-7.97,9.09-11.79,13.82-2.88,3.49-5.92,6.81-8.97,10.16-2.31,2.6-4.5,5.26-6.68,7.96-3.86,4.77-7.93,9.29-12.09,13.81-3.21,3.57-6.21,7.29-9.22,11.03-3.61,4.37-7.42,8.55-11.25,12.73,3.88,5.45,8.13,10.42,12.64,15.36,2.37,2.65,4.62,5.37,6.86,8.14,3.61,4.46,7.39,8.73,11.25,12.97,2.31,2.6,4.5,5.26,6.68,7.96,3.86,4.77,7.94,9.3,12.09,13.81,3.2,3.56,6.18,7.28,9.19,11,2.35,2.83,4.79,5.54,7.28,8.25,4.09,4.45,7.92,9.05,11.72,13.75,2.35,2.83,4.79,5.54,7.28,8.25,4.09,4.45,7.92,9.05,11.72,13.75,2.35,2.83,4.79,5.54,7.28,8.25,4.11,4.47,7.97,9.09,11.79,13.82,2.17,2.63,4.42,5.16,6.71,7.68,3.1,3.4,6.05,6.86,8.94,10.44,3.86,4.77,7.94,9.3,12.09,13.81,3.2,3.56,6.18,7.28,9.19,11,2.35,2.83,4.79,5.54,7.28,8.25,4.12,4.48,8,9.11,11.82,13.85,2.8,3.4,5.75,6.65,8.75,9.88q1.43,1.78,1.43,3.78c-17.93.28-35.87.49-53.8.62-8.33.06-16.66.15-24.98.28-7.26.12-14.52.2-21.79.22-3.84.02-7.68.05-11.53.14q-25.23.55-31.13-3.82c-2.9-2.78-4.82-5.94-6.77-9.44-1.49-1.88-3.01-3.74-4.56-5.56-.72-.9-1.45-1.8-2.19-2.72-2.33-2.82-4.77-5.52-7.25-8.21-4.11-4.47-7.97-9.09-11.79-13.82-2.17-2.63-4.42-5.16-6.71-7.68-3.1-3.4-6.05-6.86-8.94-10.44-3.86-4.77-7.94-9.3-12.09-13.81-3.2-3.56-6.18-7.28-9.19-11-2.35-2.83-4.79-5.54-7.28-8.25-4.09-4.45-7.92-9.05-11.72-13.75-2.35-2.83-4.79-5.54-7.28-8.25-4.09-4.45-7.92-9.05-11.72-13.75-2.35-2.83-4.79-5.54-7.28-8.25-4.11-4.47-7.97-9.09-11.79-13.82-2.17-2.63-4.42-5.16-6.71-7.68-3.95-4.33-7.68-8.8-11.36-13.36-2.35-2.9-4.75-5.77-7.14-8.64-.33,59.73-.66,119.46-1,181h-125V0Z"/>
  <path class="cls-1" d="M2016.12,216.43c28.28,24.92,45.05,60.93,51.39,97.63.16.91.32,1.82.48,2.75,2.88,18.14,2.35,36.73,2.32,55.04,0,2.65,0,5.31,0,7.96,0,5.67,0,11.34,0,17.02,0,8.2-.01,16.4-.01,24.6,0,13.31,0,26.62-.02,39.93,0,12.92-.02,25.83-.02,38.75,0,.81,0,1.61,0,2.44,0,6.31,0,12.62,0,18.93,0,30.84-.03,61.67-.05,92.51h-122c-.03-17.31-.05-34.62-.08-52.45-.03-10.98-.05-21.97-.08-32.95-.02-5.77-.03-11.55-.05-17.32,0-.72,0-1.45,0-2.19-.03-11.64-.05-23.28-.06-34.92-.01-11.97-.04-23.94-.08-35.91-.02-6.71-.04-13.43-.04-20.14,0-6.33-.02-12.67-.05-19,0-2.31-.01-4.62,0-6.93.07-30.93-6.31-58.56-28.05-81.68-15.95-16-37.84-23.93-60.19-24.82-23.51.66-44.35,8.86-61.31,25.31-.61.54-1.23,1.08-1.86,1.64-8.74,7.96-14.87,19.47-19.14,30.36-.36.88-.71,1.77-1.08,2.68-6.25,16.89-6.36,34.74-6.35,52.51,0,2.37-.02,4.73-.03,7.1-.03,6.37-.04,12.73-.04,19.1,0,6-.03,11.99-.05,17.99-.04,11.86-.07,23.73-.09,35.59-.02,11.51-.05,23.02-.08,34.53,0,.72,0,1.44,0,2.18-.02,6.26-.04,12.51-.06,18.77-.08,26.85-.14,53.7-.2,80.54h-121V189h117c.33,14.19.66,28.38,1,43,4.62-4.62,9.24-9.24,14-14,3.07-2.56,6.01-4.95,9.25-7.25.8-.57,1.59-1.15,2.41-1.74,25.79-18.24,56.02-29.19,87.34-33.01.72-.09,1.44-.19,2.18-.28,50.2-5.81,96.5,7.72,134.74,40.71Z"/>
  <path class="cls-1" d="M354.19,0h120c.07,51.77.12,103.54.15,155.32,0,6.12,0,12.25.01,18.37,0,1.22,0,2.44,0,3.69.01,19.69.04,39.38.06,59.08.03,20.23.04,40.47.05,60.7,0,12.47.02,24.93.04,37.4.02,8.57.02,17.14.02,25.71,0,4.93,0,9.86.02,14.79.22,70.18-15.04,137.22-65.67,188.57-15.88,15.78-34.4,27.99-54.69,37.38-.65.3-1.3.61-1.96.92-31.24,14.57-65.68,21.18-100.04,22.08-.76.02-1.51.04-2.3.07-58.73,1.46-119.29-13.97-165.7-51.07-.8-.64-1.61-1.27-2.44-1.93-26.95-21.63-46.96-47.91-61.56-79.07q-.76-1.58-1.54-3.2c-8.33-18.18-13.57-38.06-16.46-57.8-.12-.77-.23-1.54-.35-2.33C.21,417.34.01,406,0,394.56c0-.68,0-1.35,0-2.05q0-23.91,3.19-31.51c15.11-.02,30.21-.04,45.32-.05,7.01,0,14.03-.01,21.04-.02,6.76-.01,13.53-.02,20.29-.02,2.59,0,5.17,0,7.76-.01,3.61,0,7.22,0,10.83,0,1.08,0,2.16,0,3.28-.01q1.47,0,2.96,0c.85,0,1.71,0,2.59,0q1.93.12,2.93,1.12c.12,2.89.19,5.76.21,8.65.03,1.83.06,3.66.09,5.49.04,2.87.08,5.74.1,8.61.16,15.67.95,31.38,6.22,46.31.25.73.5,1.46.76,2.21,5.28,14.62,13.24,28.54,24.41,39.46q2.2,2.27,2.2,4.27.88.39,1.77.79c2.39,1.3,3.92,2.74,5.85,4.65,21.94,19.81,52.96,29.01,82.12,27.71,31.39-2.12,60.35-16.01,81.94-38.9,20.05-23.29,28.67-50.7,28.55-81.14,0-1.69,0-3.38,0-5.07,0-4.61,0-9.23-.01-13.84,0-4.99,0-9.97,0-14.96,0-8.63,0-17.26-.02-25.89-.02-12.48-.02-24.95-.02-37.43,0-20.24-.02-40.48-.04-60.73-.02-19.66-.03-39.32-.04-58.98,0-1.21,0-2.43,0-3.67,0-6.08,0-12.17,0-18.25-.02-50.44-.06-100.87-.1-151.31Z"/>
</svg>